<?xml version="1.0" encoding="utf-8"?>
<!-- Generator: Adobe Illustrator 22.0.0, SVG Export Plug-In . SVG Version: 6.00 Build 0)  -->
<svg version="1.1" id="Layer_1" xmlns="http://www.w3.org/2000/svg" xmlns:xlink="http://www.w3.org/1999/xlink" x="0px" y="0px"
	 viewBox="0 0 671 84.1" style="enable-background:new 0 0 671 84.1;" xml:space="preserve" width="671" height="84">
<style type="text/css">
	.st0{fill:#11728C;}
</style>
<g>
	<path class="st0" d="M63.2,59l-25,11.6V34.8l0,0l24.7-11.6v9.4h6.7V17.9c0-1.1-0.5-2.2-1.6-2.7L36.8,0.4c-1.3-0.5-2.7-0.5-4,0
		L1.6,15.2C0.5,15.7,0,16.5,0,17.9v43.5c0,1.1,0.5,2.2,1.6,2.7l31.2,14.5c1.3,0.5,2.7,0.5,4,0L68,64.1c1.1-0.5,1.6-1.3,1.6-2.7V49.1
		h-6.5V59z M31.4,70.8L6.7,59V23.3l24.7,11.6l0,0V70.8z M35.8,28.6l-0.8,0.5l-1.1-0.5L11.3,18.1l23.4-11l23.4,11L35.8,28.6z"/>
	<path class="st0" d="M155.9,59l-25,11.6V34.8l0,0l24.7-11.6v9.4h7V17.9c0-1.1-0.5-2.2-1.6-2.7L129.8,0.4c-1.3-0.5-2.7-0.5-4,0
		L94.6,15.2c-1.1,0.5-1.6,1.3-1.6,2.7v14.8h6.7v-9.4l24.7,11.6l0,0v35.8L99.5,59v-9.9h-6.7v12.4c0,1.1,0.5,2.2,1.6,2.7l31.2,14.5
		c1.3,0.5,2.7,0.5,4,0l31.2-14.5c1.1-0.5,1.6-1.3,1.6-2.7V49.1h-6.7V59H155.9z M128.5,28.6l-0.8,0.5l-1.1-0.5l-22.3-10.5l23.4-11
		l23.4,11L128.5,28.6z"/>
	<path class="st0" d="M253.7,15.2L222.6,0.4c-1.3-0.5-2.7-0.5-4,0l-31.2,14.8c-1.1,0.5-1.6,1.3-1.6,2.7v14.8h6.5v-9.4l24.7,11.6l0,0
		v35.8L192.2,59v-9.9h-6.7v12.4c0,1.1,0.5,2.2,1.6,2.7l31.2,14.5c1.3,0.5,2.7,0.5,4,0l31.2-14.5c1.1-0.5,1.6-1.3,1.6-2.7V17.9
		C255.4,16.8,254.8,15.7,253.7,15.2z M221.5,28.6l-0.8,0.5l-1.1-0.5L197,18.1l23.4-11l23.4,11L221.5,28.6z M248.6,59l-25,11.6V34.8
		l0,0l24.7-11.6V59H248.6z"/>
	<path class="st0" d="M53.8,41c0,1.9,1.6,3.2,3.2,3.2h48.4c1.9,0,3.2-1.6,3.2-3.2c0-1.9-1.6-3.2-3.2-3.2H57
		C55.4,37.8,53.8,39.1,53.8,41z"/>
	<path class="st0" d="M146.5,41c0,1.9,1.6,3.2,3.2,3.2h48.4c1.9,0,3.2-1.6,3.2-3.2c0-1.9-1.6-3.2-3.2-3.2h-48.4
		C148.1,37.8,146.5,39.1,146.5,41z"/>
</g>
<g>
	<path class="st0" d="M284.6,17.4c-0.4-0.4-0.5-0.8-0.5-1.3c0-0.5,0.2-1,0.5-1.3c0.4-0.4,0.8-0.5,1.3-0.5c0.5,0,0.9,0.2,1.3,0.5
		c0.4,0.4,0.6,0.8,0.6,1.3c0,0.5-0.2,0.9-0.6,1.3c-0.4,0.4-0.8,0.6-1.3,0.6C285.4,18,284.9,17.8,284.6,17.4z M285.2,28.3h1.4v37.2
		h-1.4V28.3z"/>
	<path class="st0" d="M334.9,12.1v53.4h-1.4V54.1c-1.2,3.6-3.4,6.4-6.3,8.5c-3,2.1-6.4,3.1-10.3,3.1c-3.4,0-6.4-0.8-9.2-2.4
		c-2.8-1.6-4.9-3.9-6.5-6.7s-2.4-6.1-2.4-9.7s0.8-6.8,2.4-9.7c1.6-2.9,3.8-5.1,6.5-6.7c2.8-1.6,5.8-2.4,9.2-2.4
		c3.8,0,7.3,1,10.3,3.1s5.1,4.9,6.4,8.4V12.1H334.9z M325.3,62.1c2.5-1.5,4.5-3.6,6-6.2c1.4-2.7,2.2-5.7,2.2-9c0-3.4-0.7-6.4-2.2-9
		c-1.4-2.7-3.4-4.7-6-6.2c-2.5-1.5-5.4-2.2-8.5-2.2c-3.1,0-6,0.7-8.5,2.2c-2.5,1.5-4.5,3.5-6,6.2c-1.4,2.7-2.2,5.7-2.2,9
		c0,3.4,0.7,6.4,2.2,9c1.4,2.7,3.4,4.7,6,6.2c2.5,1.5,5.4,2.2,8.5,2.2C320,64.3,322.8,63.6,325.3,62.1z"/>
	<path class="st0" d="M381.6,46.8h-33.1c0,3.4,0.7,6.4,2.2,9c1.5,2.7,3.5,4.7,6.2,6.2c2.6,1.5,5.6,2.2,8.8,2.2
		c2.5,0,4.9-0.5,7.2-1.5c2.2-1,4.1-2.4,5.5-4.3l1,1c-1.6,2-3.6,3.5-6,4.5c-2.4,1.1-4.9,1.6-7.6,1.6c-3.6,0-6.7-0.8-9.5-2.4
		c-2.8-1.6-5-3.9-6.6-6.7c-1.6-2.9-2.4-6.1-2.4-9.7s0.7-6.8,2.2-9.7c1.5-2.9,3.5-5.1,6.2-6.7c2.6-1.6,5.6-2.4,8.8-2.4
		c3.2,0,6.1,0.8,8.8,2.4c2.6,1.6,4.7,3.8,6.2,6.6c1.5,2.8,2.3,6,2.3,9.5V46.8z M356.5,31.5c-2.4,1.4-4.2,3.3-5.7,5.8
		c-1.4,2.4-2.2,5.2-2.3,8.2h31.8c-0.1-3-0.9-5.8-2.4-8.2c-1.4-2.4-3.3-4.4-5.7-5.8c-2.4-1.4-5-2.1-7.8-2.1S358.8,30.1,356.5,31.5z"
		/>
	<path class="st0" d="M421.8,32c2.6,2.7,4,6.5,4,11.5v22h-1.4v-22c0-4.6-1.2-8.1-3.5-10.5c-2.3-2.4-5.6-3.6-9.9-3.6
		c-4.8,0-8.7,1.5-11.5,4.4c-2.8,2.9-4.2,6.7-4.2,11.5v20.2h-1.4V28.3h1.4v9.9c1.2-3.2,3.1-5.7,5.8-7.5c2.7-1.8,6-2.7,9.9-2.7
		C415.5,28,419.1,29.4,421.8,32z"/>
	<path class="st0" d="M458.7,63c-0.8,0.9-1.9,1.5-3.2,2c-1.3,0.5-2.7,0.7-4.1,0.7c-2.9,0-5.1-0.8-6.7-2.5c-1.6-1.7-2.3-3.9-2.3-6.7
		V29.6h-7.2v-1.4h7.2v-8.1h1.4v8.1h12.6v1.4h-12.6v26.6c0,2.6,0.6,4.7,1.9,6c1.3,1.4,3.2,2.1,5.7,2.1c2.5,0,4.6-0.8,6.2-2.3
		L458.7,63z"/>
	<path class="st0" d="M469.2,17.4c-0.4-0.4-0.5-0.8-0.5-1.3c0-0.5,0.2-1,0.5-1.3c0.4-0.4,0.8-0.5,1.3-0.5c0.5,0,0.9,0.2,1.3,0.5
		c0.4,0.4,0.6,0.8,0.6,1.3c0,0.5-0.2,0.9-0.6,1.3c-0.4,0.4-0.8,0.6-1.3,0.6C470,18,469.5,17.8,469.2,17.4z M469.8,28.3h1.4v37.2
		h-1.4V28.3z"/>
	<path class="st0" d="M490.5,16.4v24.2h27.8V42h-27.8v23.5h-1.4V15.1h32.5v1.4H490.5z"/>
	<path class="st0" d="M536.1,63.3c-2.8-1.6-4.9-3.9-6.5-6.7s-2.3-6.1-2.3-9.7s0.8-6.8,2.3-9.7c1.6-2.9,3.7-5.1,6.5-6.7
		c2.8-1.6,5.8-2.4,9.3-2.4c3.4,0,6.5,0.8,9.3,2.4c2.8,1.6,4.9,3.8,6.5,6.7c1.6,2.9,2.3,6.1,2.3,9.7s-0.8,6.8-2.3,9.7
		c-1.6,2.9-3.7,5.1-6.5,6.7c-2.8,1.6-5.8,2.4-9.3,2.4C541.9,65.7,538.8,64.9,536.1,63.3z M553.8,62.1c2.5-1.5,4.5-3.6,6-6.2
		c1.4-2.7,2.2-5.7,2.2-9c0-3.4-0.7-6.4-2.2-9c-1.4-2.7-3.4-4.7-6-6.2c-2.5-1.5-5.4-2.2-8.5-2.2c-3.1,0-6,0.7-8.5,2.2
		c-2.5,1.5-4.5,3.5-6,6.2c-1.4,2.7-2.2,5.7-2.2,9c0,3.4,0.7,6.4,2.2,9c1.4,2.7,3.4,4.7,6,6.2c2.5,1.5,5.4,2.2,8.5,2.2
		C548.4,64.3,551.3,63.6,553.8,62.1z"/>
	<path class="st0" d="M582.3,30.6c2.5-1.7,5.6-2.6,9.3-2.6v1.4h-0.4c-4.5,0-7.9,1.4-10.4,4.3c-2.5,2.9-3.7,6.8-3.7,11.7v20h-1.4
		V28.3h1.4v9.6C578,34.7,579.8,32.3,582.3,30.6z"/>
	<path class="st0" d="M659.3,32c2.6,2.7,3.9,6.5,3.9,11.5v22h-1.4v-22c0-4.6-1.1-8.1-3.4-10.5c-2.3-2.4-5.4-3.6-9.6-3.6
		c-4.7,0-8.4,1.5-11.2,4.4c-2.7,2.9-4.1,6.7-4.1,11.5v20.2h-1.4v-22c0-4.6-1.1-8.1-3.4-10.5c-2.3-2.4-5.4-3.6-9.6-3.6
		c-4.7,0-8.4,1.5-11.2,4.4c-2.7,2.9-4.1,6.7-4.1,11.5v20.2h-1.4V28.3h1.4v9.9c1.1-3.2,3-5.6,5.6-7.4c2.6-1.8,5.8-2.7,9.6-2.7
		c3.8,0,6.9,0.9,9.4,2.8c2.4,1.9,4,4.6,4.8,8.2c1-3.4,2.8-6.1,5.5-8.1c2.7-2,6.1-3,10-3C653.2,28,656.8,29.4,659.3,32z"/>
</g>
</svg>
